<?xml version="1.0" encoding="utf-8"?>
<!-- Generator: Adobe Illustrator 21.1.0, SVG Export Plug-In . SVG Version: 6.00 Build 0)  -->
<svg version="1.1" id="Layer_1" xmlns="http://www.w3.org/2000/svg" xmlns:xlink="http://www.w3.org/1999/xlink" x="0px" y="0px"
	 viewBox="0 0 52 18" style="enable-background:new 0 0 52 18;" xml:space="preserve">
<style type="text/css">
	.st0{fill:#FFFFFF;}
</style>
<polygon class="st0" points="7.5,11.2 7.5,11.2 3.8,1.1 0.7,1.1 5.4,13.8 9.5,13.8 14.2,1.1 11.1,1.1 "/>
<rect x="16.7" y="1" class="st0" width="3" height="12.8"/>
<path class="st0" d="M29.3,0.8c-5.3,0-6.4,1.7-6.4,6.7V18h3v-5.5h0c0,0,0.4,1.5,3.5,1.5c4.9,0,6.1-1.8,6.1-6.7
	C35.6,2.4,34.5,0.8,29.3,0.8 M29.2,11.4c-2.9,0-3.3-0.6-3.3-4c0-3.3,0.5-4,3.3-4c2.9,0,3.3,0.6,3.3,4C32.5,10.7,32,11.4,29.2,11.4"
	/>
<path class="st0" d="M44.6,0.8c-5.3,0-6.4,1.7-6.4,6.7V18h3v-5.5h0c0,0,0.4,1.5,3.5,1.5c4.9,0,6.1-1.8,6.1-6.7
	C50.9,2.4,49.9,0.8,44.6,0.8 M44.5,11.4c-2.9,0-3.3-0.6-3.3-4c0-3.3,0.5-4,3.3-4c2.9,0,3.3,0.6,3.3,4C47.9,10.7,47.4,11.4,44.5,11.4
	"/>
</svg>
